<svg width="44" height="44" viewBox="0 0 44 44" fill="none" xmlns="http://www.w3.org/2000/svg">
 <circle cx="18" cy="26" r="18" fill="#F1F1F1"/>
    <path d="M23.8363 27.0622L24.9853 22.1872C25.0682 21.8352 24.7908 21.5 24.4164 21.5H14.8696L14.6469 20.4498C14.5913 20.188 14.3525 20 14.0754 20H11.5833C11.2612 20 11 20.2518 11 20.5625V20.9375C11 21.2482 11.2612 21.5 11.5833 21.5H13.2819L14.9893 29.5493C14.5808 29.7758 14.3056 30.2005 14.3056 30.6875C14.3056 31.4124 14.9149 32 15.6667 32C16.4184 32 17.0278 31.4124 17.0278 30.6875C17.0278 30.3201 16.8711 29.9882 16.6189 29.75H21.7145C21.4623 29.9882 21.3056 30.3201 21.3056 30.6875C21.3056 31.4124 21.9149 32 22.6667 32C23.4184 32 24.0278 31.4124 24.0278 30.6875C24.0278 30.1678 23.7145 29.7188 23.2602 29.5061L23.3943 28.9372C23.4773 28.5852 23.1998 28.25 22.8255 28.25H16.3015L16.1424 27.5H23.2674C23.5398 27.5 23.7759 27.3183 23.8363 27.0622Z" fill="#222222"/>
    <circle cx="33.5" cy="10.5" r="9.5" fill="#FFC43F" stroke="white" stroke-width="2"/>
    <path d="M32.7505 14H28.3955V13.2178L30.0522 11.5522C30.5415 11.0513 30.8652 10.6968 31.0234 10.4888C31.1846 10.2778 31.3018 10.0801 31.375 9.89551C31.4482 9.71094 31.4849 9.51318 31.4849 9.30225C31.4849 9.01221 31.397 8.78369 31.2212 8.6167C31.0483 8.44971 30.8081 8.36621 30.5005 8.36621C30.2544 8.36621 30.0156 8.41162 29.7842 8.50244C29.5557 8.59326 29.2905 8.75732 28.9888 8.99463L28.4307 8.31348C28.7881 8.01172 29.1353 7.79785 29.4722 7.67188C29.8091 7.5459 30.168 7.48291 30.5488 7.48291C31.1465 7.48291 31.6255 7.63965 31.9858 7.95312C32.3462 8.26367 32.5264 8.68262 32.5264 9.20996C32.5264 9.5 32.4736 9.77539 32.3682 10.0361C32.2656 10.2969 32.106 10.5664 31.8892 10.8447C31.6753 11.1201 31.3179 11.4937 30.8169 11.9653L29.7007 13.0464V13.0903H32.7505V14ZM38.0721 14H33.7171V13.2178L35.3738 11.5522C35.8631 11.0513 36.1868 10.6968 36.345 10.4888C36.5062 10.2778 36.6234 10.0801 36.6966 9.89551C36.7698 9.71094 36.8065 9.51318 36.8065 9.30225C36.8065 9.01221 36.7186 8.78369 36.5428 8.6167C36.3699 8.44971 36.1297 8.36621 35.8221 8.36621C35.576 8.36621 35.3372 8.41162 35.1058 8.50244C34.8773 8.59326 34.6121 8.75732 34.3104 8.99463L33.7523 8.31348C34.1097 8.01172 34.4569 7.79785 34.7938 7.67188C35.1307 7.5459 35.4896 7.48291 35.8704 7.48291C36.4681 7.48291 36.9471 7.63965 37.3074 7.95312C37.6678 8.26367 37.848 8.68262 37.848 9.20996C37.848 9.5 37.7952 9.77539 37.6898 10.0361C37.5872 10.2969 37.4276 10.5664 37.2108 10.8447C36.9969 11.1201 36.6395 11.4937 36.1385 11.9653L35.0223 13.0464V13.0903H38.0721V14Z" fill="#222222"/>
</svg>
