<svg width="44" height="44" viewBox="0 0 44 44" fill="none" xmlns="http://www.w3.org/2000/svg">
    <circle cx="18" cy="26" r="18" fill="#F1F1F1"/>
    <path d="M22.8352 21.6838C21.5509 20.6414 19.6408 20.8289 18.4619 21.9873L18.0002 22.4404L17.5385 21.9873C16.3619 20.8289 14.4495 20.6414 13.1651 21.6838C11.6933 22.8802 11.6159 25.0275 12.9331 26.3243L17.4682 30.784C17.7611 31.072 18.2369 31.072 18.5299 30.784L23.0649 26.3243C24.3844 25.0275 24.3071 22.8802 22.8352 21.6838Z" fill="#222222"/>
    <circle cx="33.5" cy="10.5" r="9.5" fill="#FFC43F" stroke="white" stroke-width="2"/>
    <path d="M31.4277 14H30.395V9.85156C30.395 9.35645 30.4067 8.96387 30.4302 8.67383C30.3628 8.74414 30.2793 8.82178 30.1797 8.90674C30.083 8.9917 29.7549 9.26123 29.1953 9.71533L28.6768 9.06055L30.5664 7.5752H31.4277V14ZM38.0721 14H33.7171V13.2178L35.3738 11.5522C35.8631 11.0513 36.1868 10.6968 36.345 10.4888C36.5062 10.2778 36.6234 10.0801 36.6966 9.89551C36.7698 9.71094 36.8065 9.51318 36.8065 9.30225C36.8065 9.01221 36.7186 8.78369 36.5428 8.6167C36.3699 8.44971 36.1297 8.36621 35.8221 8.36621C35.576 8.36621 35.3372 8.41162 35.1058 8.50244C34.8773 8.59326 34.6121 8.75732 34.3104 8.99463L33.7523 8.31348C34.1097 8.01172 34.4569 7.79785 34.7938 7.67188C35.1307 7.5459 35.4896 7.48291 35.8704 7.48291C36.4681 7.48291 36.9471 7.63965 37.3074 7.95312C37.6678 8.26367 37.848 8.68262 37.848 9.20996C37.848 9.5 37.7952 9.77539 37.6898 10.0361C37.5872 10.2969 37.4276 10.5664 37.2108 10.8447C36.9969 11.1201 36.6395 11.4937 36.1385 11.9653L35.0223 13.0464V13.0903H38.0721V14Z" fill="#222222"/>
</svg>
