<svg width="36" height="36" viewBox="0 0 36 36" fill="none" xmlns="http://www.w3.org/2000/svg">
    <circle cx="18" cy="18" r="18" fill="#F1F1F1"/>
    <path d="M18 18C19.5781 18 20.8571 16.657 20.8571 15C20.8571 13.343 19.5781 12 18 12C16.4219 12 15.1429 13.343 15.1429 15C15.1429 16.657 16.4219 18 18 18ZM20 18.75H19.6272C19.1317 18.9891 18.5804 19.125 18 19.125C17.4196 19.125 16.8705 18.9891 16.3728 18.75H16C14.3438 18.75 13 20.1609 13 21.9V22.875C13 23.4961 13.4799 24 14.0714 24H21.9286C22.5201 24 23 23.4961 23 22.875V21.9C23 20.1609 21.6562 18.75 20 18.75Z" fill="#222222"/>
</svg>
