<svg width="102" height="295" viewBox="0 0 102 295" fill="none" xmlns="http://www.w3.org/2000/svg">
    <circle cx="0.74707" cy="53.7405" r="5" transform="rotate(45 0.74707 53.7405)" fill="#F8F8F8"/>
    <circle cx="16.3035" cy="69.2971" r="5" transform="rotate(45 16.3035 69.2971)" fill="#F8F8F8"/>
    <circle cx="31.8599" cy="84.8533" r="5" transform="rotate(45 31.8599 84.8533)" fill="#F8F8F8"/>
    <circle cx="47.4163" cy="100.409" r="5" transform="rotate(45 47.4163 100.409)" fill="#F8F8F8"/>
    <circle cx="62.9727" cy="115.966" r="5" transform="rotate(45 62.9727 115.966)" fill="#F8F8F8"/>
    <circle cx="78.5288" cy="131.522" r="5" transform="rotate(45 78.5288 131.522)" fill="#F8F8F8"/>
    <circle cx="94.0852" cy="147.078" r="5" transform="rotate(45 94.0852 147.078)" fill="#F8F8F8"/>
    <circle cx="0.74707" cy="84.8533" r="5" transform="rotate(45 0.74707 84.8533)" fill="#F8F8F8"/>
    <circle cx="16.3035" cy="100.409" r="5" transform="rotate(45 16.3035 100.409)" fill="#F8F8F8"/>
    <circle cx="31.8599" cy="115.966" r="5" transform="rotate(45 31.8599 115.966)" fill="#F8F8F8"/>
    <circle cx="47.4163" cy="131.522" r="5" transform="rotate(45 47.4163 131.522)" fill="#F8F8F8"/>
    <circle cx="62.9727" cy="147.079" r="5" transform="rotate(45 62.9727 147.079)" fill="#F8F8F8"/>
    <circle cx="78.5288" cy="162.635" r="5" transform="rotate(45 78.5288 162.635)" fill="#F8F8F8"/>
    <circle cx="0.74707" cy="115.966" r="5" transform="rotate(45 0.74707 115.966)" fill="#F8F8F8"/>
    <circle cx="16.3035" cy="131.522" r="5" transform="rotate(45 16.3035 131.522)" fill="#F8F8F8"/>
    <circle cx="31.8599" cy="147.078" r="5" transform="rotate(45 31.8599 147.078)" fill="#F8F8F8"/>
    <circle cx="47.4163" cy="162.635" r="5" transform="rotate(45 47.4163 162.635)" fill="#F8F8F8"/>
    <circle cx="62.9727" cy="178.191" r="5" transform="rotate(45 62.9727 178.191)" fill="#F8F8F8"/>
    <circle cx="0.74707" cy="147.078" r="5" transform="rotate(45 0.74707 147.078)" fill="#F8F8F8"/>
    <circle cx="16.3035" cy="162.635" r="5" transform="rotate(45 16.3035 162.635)" fill="#F8F8F8"/>
    <circle cx="31.8599" cy="178.191" r="5" transform="rotate(45 31.8599 178.191)" fill="#F8F8F8"/>
    <circle cx="47.4163" cy="193.748" r="5" transform="rotate(45 47.4163 193.748)" fill="#F8F8F8"/>
    <circle cx="0.74707" cy="178.191" r="5" transform="rotate(45 0.74707 178.191)" fill="#F8F8F8"/>
    <circle cx="16.3035" cy="193.747" r="5" transform="rotate(45 16.3035 193.747)" fill="#F8F8F8"/>
    <circle cx="31.8599" cy="209.303" r="5" transform="rotate(45 31.8599 209.303)" fill="#F8F8F8"/>
    <circle cx="0.74707" cy="209.303" r="5" transform="rotate(45 0.74707 209.303)" fill="#F8F8F8"/>
    <circle cx="16.3035" cy="224.86" r="5" transform="rotate(45 16.3035 224.86)" fill="#F8F8F8"/>
    <circle cx="0.74707" cy="240.416" r="5" transform="rotate(45 0.74707 240.416)" fill="#F8F8F8"/>
</svg>
