<svg width="1612" height="547" viewBox="0 0 1612 547" fill="none" xmlns="http://www.w3.org/2000/svg">
    <g opacity="0.16">
        <path d="M2097.51 139.2C2123.57 185.863 2092.3 246.955 2046.62 274.891C2000.95 302.52 1945.76 307.125 1893.03 316.642C1840.61 326.466 1784.82 345.499 1756.31 390.627C1719.52 448.342 1739.14 529.695 1699.9 585.568C1669.55 629.161 1612.22 643.283 1561.95 641.134C1533.44 639.906 1505.23 629.468 1477.03 625.784C1348.58 608.899 1291.86 490.4 1196.22 508.513C1092.6 528.16 1059.79 596.313 1055.2 635.915C1049.06 686.876 1054.58 810.287 1179.66 846.205C1230.55 860.941 1281.75 877.518 1326.2 906.069C1393.03 948.434 1430.12 1040.22 1396.71 1111.75C1373.72 1160.87 1321.91 1196.79 1314.55 1250.51C1309.64 1286.74 1327.42 1323.27 1354.4 1347.83C1381.38 1372.39 1416.63 1385.9 1452.2 1394.19" stroke="white" stroke-width="0.75" stroke-miterlimit="10"/>
        <path d="M2094.14 137.665C2118.97 186.477 2088.93 249.718 2042.33 279.189C1996.65 307.739 1940.55 312.651 1887.82 321.554C1835.71 330.15 1780.53 347.034 1750.79 389.399C1713.08 443.737 1728.41 522.327 1689.17 577.586C1657.9 621.793 1602.72 638.371 1552.44 638.985C1523.32 639.292 1494.2 630.696 1464.46 627.319C1339.69 612.891 1282.97 498.382 1189.16 516.188C1088.31 535.221 1054.89 600.611 1049.37 640.213C1042.32 690.253 1047.84 809.059 1167.4 846.205C1216.76 861.555 1266.73 879.361 1310.87 907.911C1375.86 949.355 1412.34 1037.46 1381.69 1107.46C1360.23 1155.96 1311.18 1192.19 1303.82 1245.6C1298.61 1282.14 1314.86 1318.67 1340.3 1344.15C1365.75 1369.94 1399.77 1385.59 1434.72 1395.72" stroke="#FBFBFB" stroke-width="0.75" stroke-miterlimit="10"/>
        <path d="M2091.07 136.13C2114.68 187.091 2085.56 252.48 2038.04 283.487C1992.67 312.958 1935.65 318.484 1882.3 326.159C1830.19 333.526 1775.93 348.262 1745.27 388.171C1706.34 439.132 1717.68 514.959 1678.13 569.911C1646.25 614.425 1592.91 634.073 1542.63 637.45C1513.2 639.292 1482.55 632.538 1451.89 629.468C1330.49 616.881 1274.08 507.285 1182.42 524.476C1084.63 542.896 1050.29 605.522 1043.85 644.817C1035.58 694.243 1041.4 808.138 1155.44 846.819C1203.27 862.783 1252.01 882.123 1295.54 910.367C1358.69 950.89 1394.56 1035.62 1366.66 1104.08C1347.04 1151.97 1300.45 1188.81 1293.09 1241.31C1287.57 1277.84 1302.59 1314.68 1326.2 1341.08C1350.11 1368.09 1382.61 1385.9 1417.25 1397.87" stroke="#F6F6F6" stroke-width="0.75" stroke-miterlimit="10"/>
        <path d="M2088.01 134.595C2110.39 187.705 2082.49 255.243 2033.75 287.785C1988.38 318.177 1930.74 324.01 1877.09 330.764C1825.28 337.21 1771.33 349.49 1740.06 386.636C1699.9 434.22 1707.26 506.978 1667.71 561.622C1634.91 606.75 1583.71 628.854 1533.44 634.994C1503.39 638.678 1471.51 633.459 1439.93 630.696C1322.21 619.951 1265.81 515.266 1176.29 531.844C1081.25 549.65 1046.31 609.513 1038.95 648.808C1029.75 697.313 1035.58 806.91 1144.1 846.512C1190.39 863.397 1237.91 883.965 1281.13 911.902C1342.45 951.811 1377.7 1032.86 1352.56 1099.47C1334.78 1146.44 1290.94 1184.2 1283.28 1236.09C1277.76 1272.93 1290.94 1309.76 1312.71 1337.09C1335.09 1365.33 1366.36 1385.28 1400.39 1399.41" stroke="#F2F2F2" stroke-width="0.75" stroke-miterlimit="10"/>
        <path d="M2084.64 133.06C2105.48 188.319 2078.81 257.699 2029.15 292.082C1983.78 323.396 1925.53 329.843 1871.27 335.369C1819.46 340.587 1766.42 350.718 1734.23 385.408C1693.16 429.615 1696.22 499.61 1656.37 553.641C1622.95 599.076 1573.6 624.249 1523.32 633.152C1492.97 638.678 1459.86 634.994 1426.75 632.538C1312.4 623.635 1256.3 523.862 1168.62 539.826C1076.35 556.711 1040.79 614.425 1032.51 653.106C1022.09 700.69 1028.53 805.989 1131.22 846.512C1175.98 864.318 1222.27 885.807 1264.89 913.744C1324.36 952.732 1359 1030.4 1336.62 1095.18C1320.68 1141.53 1279.6 1179.6 1271.63 1231.17C1265.81 1268.32 1277.76 1305.16 1297.69 1333.4C1318.84 1362.87 1348.27 1384.98 1381.99 1400.94" stroke="#EEEEEE" stroke-width="0.75" stroke-miterlimit="10"/>
        <path d="M2081.57 131.525C2101.19 188.933 2075.75 260.462 2024.86 296.38C1979.49 328.615 1920.62 335.676 1866.06 339.973C1814.55 344.271 1762.13 351.946 1728.72 383.874C1686.41 424.704 1685.49 491.935 1645.64 545.352C1611.3 591.401 1564.09 619.337 1513.82 630.696C1482.85 637.757 1448.52 635.915 1414.49 633.766C1303.82 626.398 1247.72 531.844 1162.19 547.194C1072.98 563.464 1036.5 618.416 1027.3 657.097C1015.96 703.76 1022.39 804.761 1119.57 846.512C1162.8 864.932 1208.17 887.649 1249.86 915.586C1307.5 953.653 1341.53 1027.95 1321.91 1090.88C1307.5 1136.62 1269.18 1175.3 1260.9 1225.96C1255.08 1263.41 1265.19 1300.25 1283.59 1329.41C1303.21 1360.42 1331.41 1384.36 1364.52 1402.17" stroke="#E9E9E9" stroke-width="0.75" stroke-miterlimit="10"/>
        <path d="M2078.2 129.99C2096.59 189.547 2072.07 262.918 2020.26 300.678C1975.19 333.834 1915.41 341.508 1860.23 344.578C1809.04 347.648 1757.23 353.174 1722.89 382.339C1679.36 419.792 1674.45 484.26 1634.29 537.063C1599.04 583.419 1553.97 614.425 1504.01 628.547C1472.43 637.45 1437.17 637.143 1401.61 635.301C1294.32 629.468 1238.52 540.133 1155.14 554.869C1068.68 570.525 1031.9 622.714 1021.47 661.088C1008.9 707.137 1015.65 803.84 1107.01 846.205C1149 865.546 1192.84 889.491 1234.23 917.12C1289.72 954.574 1323.44 1025.18 1306.58 1086.27C1294.01 1131.71 1258.14 1170.7 1249.86 1220.74C1243.73 1258.19 1252.32 1295.34 1269.18 1325.42C1287.26 1357.66 1314.24 1384.06 1346.74 1403.4" stroke="#E5E5E5" stroke-width="0.75" stroke-miterlimit="10"/>
        <path d="M2075.13 128.455C2092.3 190.161 2068.7 265.681 2015.97 305.283C1970.9 339.359 1910.51 347.341 1854.71 349.797C1803.82 351.946 1752.32 355.016 1717.37 381.724C1672.62 415.494 1663.72 477.506 1623.56 530.002C1587.7 576.972 1544.47 610.741 1494.5 627.319C1462.31 638.064 1425.83 639.292 1389.35 637.757C1285.73 633.152 1230.24 549.036 1148.39 563.464C1065.01 578.507 1027.3 627.933 1015.96 666.307C1002.47 711.435 1009.21 804.147 1095.05 847.126C1135.52 867.388 1178.13 892.254 1218.9 920.19C1272.55 956.723 1305.97 1023.95 1291.86 1083.2C1281.13 1128.02 1248.02 1167.32 1239.44 1217.05C1233 1254.81 1240.05 1291.96 1255.08 1322.66C1271.63 1356.43 1297.07 1384.67 1329.26 1405.85" stroke="#E1E1E1" stroke-width="0.75" stroke-miterlimit="10"/>
        <path d="M2072.07 126.92C2088.01 190.775 2065.63 268.137 2011.98 309.581C1966.92 344.272 1905.91 353.174 1849.81 354.402C1798.92 355.323 1748.34 356.244 1712.16 380.19C1666.18 410.582 1653.3 469.832 1612.84 521.714C1576.05 568.99 1534.66 605.83 1485 625.17C1452.5 637.757 1414.8 637.143 1377.09 639.292C1277.15 644.511 1221.66 557.325 1141.95 571.139C1061.33 585.568 1023.01 632.538 1010.74 670.605C996.336 714.812 1003.08 803.533 1083.4 847.126C1122.64 868.309 1163.72 894.403 1204.19 922.032C1256 957.644 1288.8 1021.5 1277.45 1078.91C1268.56 1123.11 1237.91 1163.02 1229.32 1211.83C1222.58 1249.9 1228.1 1287.35 1241.59 1318.67C1256.3 1353.66 1280.83 1384.06 1312.4 1407.08" stroke="#DCDCDC" stroke-width="0.75" stroke-miterlimit="10"/>
        <path d="M2068.7 125.385C2083.1 191.696 2061.95 270.593 2007.38 313.879C1962.32 349.49 1900.7 360.542 1843.98 359.007C1793.4 357.472 1743.43 357.472 1706.34 378.962C1659.43 405.977 1642.27 462.157 1601.8 513.732C1564.09 561.622 1524.85 601.225 1475.19 623.328C1442.08 637.757 1403.15 638.371 1364.21 641.134C1267.95 647.581 1212.46 565.92 1134.9 579.121C1057.04 592.629 1018.1 637.143 1004.61 674.903C989.285 718.189 996.029 803.226 1070.83 847.433C1108.54 869.844 1148.39 896.552 1188.24 924.181C1238.21 958.872 1270.71 1019.66 1261.82 1074.91C1254.77 1118.51 1226.57 1159.03 1217.98 1207.23C1211.24 1245.6 1215.22 1283.06 1226.87 1315.29C1240.05 1351.82 1263.05 1384.06 1294.32 1408.92" stroke="#D8D8D8" stroke-width="0.75" stroke-miterlimit="10"/>
        <path d="M2065.63 123.85C2078.81 192.31 2058.58 273.356 2003.09 318.177C1958.03 354.709 1895.79 364.84 1838.77 363.612C1788.5 362.691 1739.14 358.7 1701.13 377.427C1653 401.065 1631.84 454.482 1591.07 505.443C1552.75 553.641 1515.35 596.62 1465.68 620.872C1432.27 637.143 1392.11 638.985 1351.95 642.362C1259.67 649.73 1203.88 573.902 1128.46 586.489C1053.66 599.383 1014.12 641.134 999.401 678.894C983.153 721.566 989.898 802.919 1059.18 847.126C1095.66 870.458 1134.29 898.087 1173.53 925.716C1221.66 959.486 1253.85 1016.89 1247.41 1070.31C1242.2 1113.6 1216.75 1154.12 1207.86 1202.01C1200.81 1240.69 1202.96 1278.14 1213.38 1311.3C1225.03 1349.06 1246.8 1383.44 1277.45 1410.46" stroke="#D4D4D4" stroke-width="0.75" stroke-miterlimit="10"/>
        <path d="M2062.26 122.315C2074.21 192.924 2054.9 275.812 1998.49 322.475C1953.43 359.621 1890.58 370.673 1832.95 368.217C1782.98 366.068 1734.23 359.928 1695.3 376.199C1645.94 396.767 1620.81 447.114 1580.03 497.768C1540.79 546.58 1505.54 592.629 1455.87 619.337C1421.85 637.757 1380.46 640.52 1339.07 644.511C1250.48 652.8 1194.68 582.805 1121.11 594.778C1049.07 607.058 1008.91 646.046 993.27 683.499C976.103 725.25 982.847 803.226 1046.31 847.433C1081.25 871.993 1118.65 900.543 1157.28 927.866C1203.57 960.714 1235.46 1015.05 1231.47 1066.32C1228.4 1108.99 1205.11 1150.13 1196.22 1197.1C1188.86 1235.78 1189.47 1273.85 1198.05 1307.62C1207.86 1346.91 1228.71 1383.14 1258.75 1411.99" stroke="#CFCFCF" stroke-width="0.75" stroke-miterlimit="10"/>
        <path d="M2059.19 120.78C2069.92 193.538 2051.83 278.268 1994.2 326.773C1949.14 364.84 1885.68 376.506 1827.43 372.822C1777.46 369.752 1729.33 361.156 1689.48 374.664C1639.2 391.855 1609.46 439.439 1568.69 489.479C1528.53 538.598 1495.42 587.717 1445.76 616.881C1411.42 637.143 1368.5 641.44 1326.2 645.738C1241.28 654.641 1185.49 590.48 1114.06 602.452C1044.77 613.811 1004 650.65 987.446 687.796C969.358 728.627 975.796 803.226 1034.04 847.74C1067.46 873.22 1103.63 902.692 1141.95 930.014C1186.71 961.941 1217.98 1012.9 1216.45 1062.33C1215.22 1104.69 1194.38 1146.14 1185.49 1192.49C1177.82 1231.48 1176.9 1269.55 1183.95 1304.24C1192.23 1345.07 1211.54 1383.14 1241.28 1413.84" stroke="#CBCBCB" stroke-width="0.75" stroke-miterlimit="10"/>
        <path d="M2055.82 119.245C2065.02 194.152 2048.16 281.031 1989.6 331.071C1944.54 369.752 1880.47 382.338 1821.91 377.734C1772.25 373.743 1724.73 362.691 1683.96 373.743C1632.46 387.557 1598.73 432.071 1557.96 481.804C1517.19 531.537 1486.22 583.726 1436.56 615.346C1401.61 637.45 1357.77 642.976 1314.24 647.887C1233 657.097 1177.21 599.383 1107.93 610.741C1041.71 621.486 1000.32 655.562 982.541 692.401C963.534 732.618 969.972 803.84 1022.7 848.047C1054.89 875.062 1089.53 904.841 1127.24 932.163C1170.16 963.169 1201.12 1011.06 1202.04 1058.34C1202.96 1100.4 1184.26 1141.84 1175.37 1187.89C1167.71 1227.18 1164.95 1265.56 1170.46 1300.86C1176.9 1343.23 1195.3 1383.14 1224.42 1415.68" stroke="#C7C7C7" stroke-width="0.75" stroke-miterlimit="10"/>
        <path d="M2052.75 117.71C2060.72 194.766 2044.78 283.487 1985.62 335.369C1940.55 374.971 1875.56 388.171 1816.7 382.339C1767.34 377.427 1720.44 363.919 1678.75 372.208C1626.02 382.645 1588.31 424.397 1547.23 473.515C1505.54 523.555 1476.72 579.121 1427.06 612.89C1391.8 637.143 1346.43 643.897 1301.67 649.116C1224.11 658.325 1168.32 607.364 1100.87 618.109C1037.42 628.24 995.416 659.553 976.716 696.392C956.789 735.688 962.92 803.84 1010.44 847.74C1041.09 875.983 1074.82 906.683 1111.91 933.698C1152.99 963.783 1183.95 1008.6 1187.32 1054.04C1190.39 1095.48 1174.14 1137.54 1164.95 1182.67C1156.98 1222.27 1152.68 1260.65 1156.67 1296.87C1161.57 1340.46 1178.43 1382.52 1207.25 1416.91" stroke="#C2C2C2" stroke-width="0.75" stroke-miterlimit="10"/>
        <path d="M2049.69 116.176C2056.43 195.38 2041.41 285.943 1981.33 339.973C1936.26 380.497 1870.66 394.618 1811.49 387.25C1762.13 381.111 1716.15 365.454 1673.54 371.287C1619.89 378.348 1577.89 417.336 1536.81 465.841C1494.2 516.187 1467.52 575.13 1417.86 611.355C1381.99 637.45 1336.01 649.422 1289.72 651.264C1215.22 654.641 1160.04 615.96 1094.74 626.398C1034.35 635.915 991.738 664.772 971.811 700.997C950.965 739.371 956.483 804.761 999.095 848.354C1028.22 878.132 1060.71 909.139 1097.2 936.461C1136.44 965.625 1167.4 1007.07 1172.92 1050.66C1178.13 1091.8 1164.03 1133.86 1154.52 1178.68C1146.25 1218.28 1140.11 1256.96 1142.57 1294.11C1145.63 1339.24 1161.57 1383.14 1189.78 1419.36" stroke="#BEBEBE" stroke-width="0.75" stroke-miterlimit="10"/>
        <path d="M2046.32 114.641C2051.83 195.994 2037.73 288.399 1976.73 344.271C1931.66 385.408 1865.44 400.451 1805.66 391.855C1756.61 384.794 1711.24 366.989 1667.4 369.752C1612.53 373.436 1566.54 409.354 1525.16 457.859C1481.63 508.82 1457.1 570.525 1407.44 609.206C1371.26 637.45 1323.75 650.037 1276.23 652.799C1205.11 656.79 1150.23 624.249 1087.08 634.073C1029.44 642.976 986.219 669.07 965.373 705.295C943.607 743.055 948.512 805.375 986.219 848.354C1013.5 879.667 1045.08 910.981 1081.25 938.303C1118.65 966.546 1149.62 1004.92 1157.28 1046.36C1164.64 1086.89 1152.68 1129.56 1143.18 1173.77C1134.6 1213.68 1126.93 1252.66 1127.85 1290.12C1129.08 1336.47 1144.1 1382.52 1171.69 1420.59" stroke="#BABABA" stroke-width="0.75" stroke-miterlimit="10"/>
        <path d="M2043.25 113.106C2047.24 196.608 2034.36 290.855 1972.43 348.569C1927.37 390.627 1860.54 406.284 1800.15 396.46C1751.4 388.478 1706.64 368.217 1661.89 368.217C1605.78 368.524 1555.81 401.679 1514.43 449.57C1470.28 500.838 1447.9 565.92 1397.93 607.058C1361.45 637.143 1312.71 650.958 1263.97 654.334C1196.52 658.939 1141.95 632.538 1080.33 641.748C1025.46 650.037 981.927 673.368 959.855 709.286C937.169 746.125 941.461 805.989 973.957 848.047C999.402 880.895 1030.36 912.516 1065.62 939.838C1101.18 967.16 1132.45 1002.16 1141.95 1041.76C1151.76 1081.67 1141.65 1124.95 1132.14 1168.24C1123.25 1208.46 1113.75 1247.45 1113.44 1285.82C1112.83 1333.71 1126.63 1381.6 1153.91 1421.82" stroke="#B5B5B5" stroke-width="0.75" stroke-miterlimit="10"/>
        <path d="M2039.88 111.571C2042.64 197.222 2030.68 293.311 1967.84 352.867C1922.77 395.539 1855.33 412.117 1794.63 401.372C1745.88 392.469 1701.74 369.752 1656.37 367.296C1599.35 364.226 1544.78 394.618 1503.39 441.895C1458.33 493.47 1438.09 561.929 1388.12 605.215C1351.34 637.143 1301.06 652.185 1251.4 656.176C1187.63 661.395 1133.06 641.134 1073.59 649.729C1021.78 657.404 977.635 678.28 954.337 713.891C930.731 750.116 934.103 806.91 962.001 848.661C985.3 883.044 1015.65 915.278 1050.6 942.294C1084.32 968.695 1115.59 1000.32 1127.24 1038.08C1139.5 1077.68 1131.53 1120.96 1121.72 1163.94C1112.52 1204.47 1101.49 1243.45 1099.34 1282.75C1096.89 1332.18 1109.76 1381.91 1136.44 1423.97" stroke="#B1B1B1" stroke-width="0.75" stroke-miterlimit="10"/>
        <path d="M2036.81 110.036C2038.35 198.143 2027.31 295.767 1963.54 357.165C1918.17 400.758 1850.42 418.257 1789.11 405.977C1740.67 396.153 1697.14 370.98 1650.85 365.761C1592.6 359.314 1534.05 386.636 1492.66 433.606C1446.68 485.488 1428.9 557.325 1378.93 603.067C1341.53 637.143 1290.33 652.8 1239.13 657.711C1178.74 663.544 1124.48 649.423 1067.15 657.404C1018.1 664.158 973.344 682.578 949.125 717.882C924.907 753.186 926.746 807.524 950.352 848.354C971.505 884.579 1001.55 916.814 1035.58 943.829C1067.46 969.309 1099.04 997.553 1112.52 1033.47C1127.24 1072.15 1121.11 1116.36 1111.3 1158.72C1101.79 1199.25 1088.92 1238.54 1085.55 1278.76C1081.25 1329.41 1092.9 1381.29 1119.27 1425.19" stroke="#ADADAD" stroke-width="0.75" stroke-miterlimit="10"/>
        <path d="M2033.44 108.501C2033.75 198.757 2023.63 298.222 1959.25 361.463C1913.88 405.67 1845.52 424.09 1783.9 410.582C1735.77 399.837 1692.85 372.208 1645.33 364.533C1585.86 354.709 1523.32 379.269 1481.63 425.625C1434.72 478.12 1419.09 553.027 1369.12 600.918C1331.41 636.836 1278.68 653.413 1226.56 659.246C1169.85 665.693 1115.59 657.711 1060.41 665.079C1014.42 671.219 969.051 687.183 943.607 722.18C918.468 756.87 918.775 808.138 938.395 848.354C956.789 886.421 986.832 918.656 1020.55 945.671C1050.6 969.923 1082.48 995.097 1097.81 1029.17C1115.28 1067.24 1110.68 1112.06 1100.87 1153.51C1091.06 1194.34 1076.66 1233.94 1071.75 1274.77C1065.62 1326.96 1076.35 1380.68 1102.1 1426.42" stroke="#A8A8A8" stroke-width="0.75" stroke-miterlimit="10"/>
        <path d="M2030.38 106.966C2029.15 199.371 2020.26 300.985 1954.96 365.761C1909.59 410.889 1840.61 430.23 1778.38 415.187C1730.25 403.521 1688.25 373.436 1639.81 362.998C1579.11 349.797 1512.59 371.594 1470.9 417.643C1423.07 470.446 1409.89 548.729 1359.61 599.076C1321.6 637.143 1267.34 654.335 1214 661.089C1160.65 668.149 1106.7 666.307 1053.36 673.061C1010.13 678.587 964.453 692.095 937.782 726.478C911.724 760.554 910.498 808.752 926.133 848.661C941.768 888.57 972.117 920.805 1004.92 947.82C1033.43 971.152 1065.31 992.641 1082.79 1025.18C1102.71 1062.33 1099.95 1107.76 1090.14 1148.9C1080.33 1190.04 1063.78 1229.64 1057.65 1271.39C1049.68 1324.81 1059.18 1380.68 1084.63 1428.26" stroke="#A4A4A4" stroke-width="0.75" stroke-miterlimit="10"/>
        <path d="M2190.5 564.2C2149.11 608.1 2078.3 615.775 2023.42 590.602C1968.55 565.735 1929.61 513.239 1909.69 456.446C1889.76 399.652 1886.69 338.253 1888.23 277.776C1889.76 219.754 1894.97 159.276 1872.9 105.86C1838.87 23.2784 1745.37 -23.0775 1656.16 -23.3845C1566.95 -23.3845 1482.03 14.9896 1406 61.3456C1352.05 94.1939 1289.81 133.182 1230.65 111.692C1176.69 92.0449 1150.94 28.1904 1150.33 -29.5243C1149.41 -125.306 1203.06 -220.167 1285.83 -268.058C1323.54 -289.855 1365.84 -302.441 1406.62 -317.177C1447.39 -332.22 1488.47 -350.332 1519.12 -381.338C1549.78 -412.345 1568.79 -458.087 1557.44 -500.145" stroke="#8A8A8A" stroke-width="0.75" stroke-miterlimit="10"/>
        <path d="M2196.02 551.921C2152.48 596.742 2079.22 604.723 2022.2 579.243C1965.17 553.763 1924.09 500.039 1903.25 440.789C1883.63 385.223 1880.56 325.36 1881.79 266.417C1883.02 209.623 1887.31 150.988 1865.85 98.4918C1848.99 57.9687 1817.72 26.0414 1779.7 4.55189C1742 -16.9376 1697.85 -28.2964 1654.93 -28.6034C1574.61 -29.2174 1497.36 1.78895 1427.16 41.3911C1421.33 44.768 1415.81 47.8379 1409.99 51.2148C1357.26 82.5281 1296.25 119.674 1238.31 98.7988C1185.28 79.7652 1160.14 18.9806 1157.69 -36.2782C1154.62 -105.966 1180.06 -176.881 1228.5 -228.763C1244.44 -245.954 1262.84 -260.997 1283.07 -272.97C1303.92 -285.557 1326.3 -295.073 1349.29 -303.976C1366.76 -310.73 1384.85 -316.87 1402.32 -323.624C1429.3 -334.061 1456.59 -346.034 1480.19 -361.998C1491.84 -369.98 1502.88 -378.882 1512.69 -389.32C1542.42 -420.634 1559.9 -466.069 1548.25 -507.82" stroke="#909090" stroke-width="0.75" stroke-miterlimit="10"/>
        <path d="M2201.53 539.641C2155.86 585.383 2080.44 593.979 2020.97 568.191C1961.5 542.404 1918.27 486.838 1896.81 425.746C1877.8 371.409 1874.43 313.08 1875.04 255.672C1875.66 200.413 1879.64 143.006 1858.49 92.0449C1842.24 52.4428 1811.59 21.4365 1774.8 -0.0530605C1738.32 -21.2356 1695.4 -32.5943 1653.4 -33.5153C1575.23 -35.0503 1499.81 -5.8859 1430.83 31.8743C1425.32 34.9442 1419.49 38.0141 1413.97 41.391C1362.16 71.1693 1302.69 106.474 1245.98 86.519C1194.17 68.4064 1169.33 10.3847 1165.04 -42.7251C1159.83 -110.264 1180.68 -180.258 1226.97 -233.061C1242.3 -250.559 1260.08 -265.602 1280 -278.189C1300.54 -291.083 1322.62 -300.906 1345 -309.809C1362.47 -316.87 1379.94 -323.317 1397.42 -330.378C1424.09 -341.122 1450.76 -353.402 1474.06 -369.98C1485.4 -377.962 1496.13 -387.171 1505.33 -397.609C1533.84 -429.229 1550.09 -474.664 1537.82 -515.802" stroke="#959595" stroke-width="0.75" stroke-miterlimit="10"/>
        <path d="M2207.05 527.668C2159.23 574.638 2081.36 583.541 2019.74 557.14C1958.12 530.738 1912.75 473.944 1890.68 410.397C1871.98 357.594 1868.61 300.493 1868.91 244.621C1869.22 190.59 1872.59 134.717 1851.75 84.9841C1835.8 46.303 1806.37 15.9107 1770.2 -5.27183C1734.64 -26.1474 1692.95 -37.5061 1651.87 -38.7341C1575.84 -40.883 1501.96 -13.5607 1434.51 22.0505C1428.99 24.8135 1423.48 27.8834 1417.96 30.9534C1367.07 59.1967 1309.13 92.659 1253.64 73.6254C1203.06 56.4338 1178.53 0.868033 1172.4 -49.7858C1164.74 -114.868 1180.98 -184.556 1225.74 -237.666C1240.46 -255.164 1257.93 -270.821 1277.55 -283.408C1297.79 -296.608 1319.55 -306.739 1341.62 -315.949C1358.79 -323.01 1376.27 -329.764 1393.43 -337.131C1419.8 -348.183 1446.16 -360.77 1468.85 -377.655C1479.88 -385.943 1490.31 -395.153 1499.2 -405.591C1526.79 -437.518 1541.81 -482.953 1528.63 -523.476" stroke="#9B9B9B" stroke-width="0.75" stroke-miterlimit="10"/>
        <path d="M2212.57 515.389C2162.6 563.279 2082.28 572.796 2018.52 545.781C1954.75 519.072 1907.23 460.437 1884.24 395.047C1866.15 343.472 1862.48 287.907 1862.17 233.569C1861.86 181.073 1864.62 126.735 1844.39 78.2303C1828.75 40.7772 1800.24 10.6919 1765.29 -10.1837C1730.96 -30.7522 1690.49 -42.4179 1650.33 -43.9529C1576.14 -47.0228 1504.1 -21.2354 1438.19 12.2268C1432.67 14.9898 1427.46 17.7527 1422.25 20.5156C1372.59 46.917 1315.87 78.8443 1261.92 60.7318C1212.56 44.4611 1188.04 -8.34168 1180.37 -56.5396C1170.56 -119.473 1182.21 -188.24 1224.82 -242.27C1238.92 -260.076 1256.09 -275.733 1275.1 -288.626C1294.72 -301.827 1316.49 -312.572 1338.25 -322.089C1355.11 -329.456 1372.28 -336.517 1389.45 -343.885C1415.51 -355.244 1441.26 -368.445 1463.33 -385.636C1474.06 -394.232 1484.18 -403.442 1492.76 -414.187C1519.12 -446.421 1532.92 -491.549 1519.12 -531.765" stroke="#A0A0A0" stroke-width="0.75" stroke-miterlimit="10"/>
        <path d="M2218.09 503.109C2165.97 551.921 2083.51 561.744 2017.29 534.729C1951.07 507.407 1901.41 447.543 1877.8 379.697C1860.33 329.658 1856.34 275.32 1855.73 222.21C1855.12 170.942 1857.26 118.139 1837.34 70.8624C1822.01 34.3302 1794.42 5.16588 1760.7 -15.4027C1727.28 -35.6642 1688.04 -47.3299 1649.11 -49.1719C1577.06 -52.8558 1506.56 -28.9103 1442.18 2.40296C1436.97 4.8589 1431.75 7.62186 1426.54 10.3848C1377.8 35.2512 1322.62 65.0295 1269.89 48.1449C1221.76 32.4883 1197.54 -17.2446 1188.04 -63.2935C1175.77 -124.078 1182.82 -191.924 1223.6 -246.568C1237.09 -264.681 1253.64 -280.338 1272.34 -293.538C1291.65 -307.046 1312.81 -317.791 1334.57 -327.615C1351.43 -335.289 1368.3 -342.35 1384.85 -350.025C1410.6 -361.998 1435.74 -375.198 1457.51 -392.697C1467.93 -401.293 1477.74 -410.81 1486.02 -421.554C1511.15 -454.096 1523.72 -499.224 1509.31 -538.519" stroke="#A6A6A6" stroke-width="0.75" stroke-miterlimit="10"/>
        <path d="M2223.61 490.829C2169.35 540.562 2084.43 551 2016.06 523.371C1947.7 495.741 1895.89 434.035 1871.37 364.348C1854.2 315.536 1850.21 263.04 1848.99 211.158C1848.07 161.426 1849.29 109.851 1829.98 64.1088C1814.96 28.4975 1788.29 -0.0528161 1755.48 -20.3144C1722.99 -40.2689 1684.98 -51.9347 1647.27 -54.3906C1577.37 -58.6885 1508.7 -36.585 1445.55 -7.1137C1440.34 -4.65775 1435.13 -2.20173 1430.22 0.254215C1382.4 23.5857 1328.75 51.5221 1277.25 35.5584C1230.03 20.8228 1206.12 -26.4543 1195.09 -70.0473C1180.37 -128.683 1183.13 -195.914 1221.76 -251.173C1234.63 -269.286 1250.88 -285.556 1269.27 -298.757C1288.28 -312.572 1309.13 -323.624 1330.59 -333.754C1347.14 -341.429 1364 -348.797 1380.25 -356.779C1405.7 -369.059 1430.53 -382.566 1451.37 -400.679C1461.49 -409.582 1470.99 -419.405 1478.96 -430.15C1503.18 -463.305 1514.22 -507.819 1499.2 -546.808" stroke="#ABABAB" stroke-width="0.75" stroke-miterlimit="10"/>
        <path d="M2229.13 478.549C2172.72 529.203 2085.65 540.255 2014.84 512.011C1944.02 483.768 1890.37 420.834 1864.93 348.691C1848.37 301.107 1844.08 250.146 1842.55 199.799C1841.02 151.295 1841.94 101.255 1822.93 56.7407C1808.21 22.0505 1782.77 -5.88587 1750.89 -25.8404C1719.62 -45.488 1682.83 -57.1537 1646.04 -59.9167C1578.29 -65.1356 1511.15 -44.874 1449.23 -17.2446C1444.32 -15.0957 1439.11 -12.6397 1434.21 -10.4908C1387.92 11.3057 1335.8 37.7071 1285.52 22.3575C1239.54 8.54279 1215.63 -36.2782 1203.06 -77.1083C1185.89 -133.902 1184.05 -199.906 1220.84 -255.778C1233.1 -274.198 1248.74 -290.468 1266.82 -304.283C1285.52 -318.405 1306.06 -329.764 1327.22 -340.201C1343.46 -348.183 1360.02 -355.858 1376.27 -363.84C1401.4 -376.427 1425.62 -390.548 1446.16 -408.661C1456.28 -417.564 1465.17 -427.694 1472.53 -438.439C1495.52 -471.901 1505.33 -516.415 1490 -554.79" stroke="#B1B1B1" stroke-width="0.75" stroke-miterlimit="10"/>
        <path d="M2234.64 466.269C2176.09 518.151 2086.57 529.51 2013.61 500.653C1940.65 472.102 1884.55 407.327 1858.8 333.341C1842.55 287.292 1838.26 237.56 1836.42 188.748C1834.58 141.471 1834.58 93.2729 1816.18 49.9868C1801.78 16.2176 1777.25 -11.1048 1746.59 -30.7524C1716.24 -50.3999 1680.68 -61.7586 1645.12 -65.1356C1579.52 -70.9684 1513.91 -52.5489 1453.52 -27.0684C1448.61 -24.9195 1443.71 -22.7705 1438.8 -20.6216C1393.13 -0.360028 1342.24 23.8924 1293.19 9.77073C1248.43 -3.12298 1224.52 -45.181 1210.41 -83.8622C1190.49 -138.507 1184.36 -203.896 1219.3 -260.076C1230.95 -278.803 1246.28 -295.073 1264.06 -309.195C1282.15 -323.624 1302.69 -335.289 1323.23 -345.727C1339.17 -354.016 1355.73 -361.691 1371.67 -369.98C1396.19 -382.873 1420.41 -397.302 1440.34 -416.029C1450.15 -425.238 1458.73 -435.369 1465.78 -446.421C1487.85 -480.19 1496.13 -524.397 1480.19 -562.464" stroke="#B7B7B7" stroke-width="0.75" stroke-miterlimit="10"/>
        <path d="M2240.16 453.99C2179.46 506.793 2087.8 518.458 2012.38 489.601C1937.28 460.437 1879.03 394.433 1852.36 317.992C1836.72 273.171 1832.13 224.973 1829.67 177.696C1827.53 131.954 1826.91 84.9841 1809.13 42.926C1795.34 10.3847 1771.43 -16.3236 1742 -35.6642C1712.87 -55.0048 1678.54 -66.3635 1643.9 -70.0475C1580.13 -76.4943 1516.37 -59.9167 1457.5 -36.5852C1452.6 -34.7432 1448 -32.5943 1443.1 -30.7523C1398.64 -12.0258 1348.98 10.3848 1301.46 -2.81594C1257.93 -14.7887 1234.02 -54.3908 1218.69 -90.616C1196.31 -143.419 1185.89 -207.58 1219 -264.681C1230.03 -283.408 1244.75 -300.292 1262.22 -314.414C1280 -328.843 1300.24 -340.815 1320.47 -351.867C1336.41 -360.156 1352.35 -368.445 1368.29 -376.734C1392.51 -389.934 1416.12 -404.67 1435.43 -423.703C1444.94 -432.913 1453.21 -443.351 1459.96 -454.403C1480.8 -488.479 1487.85 -532.686 1471.3 -570.139" stroke="#BCBCBC" stroke-width="0.75" stroke-miterlimit="10"/>
        <path d="M2245.68 441.71C2182.83 495.434 2088.72 507.714 2011.16 478.243C1933.6 448.771 1873.21 380.926 1845.92 302.642C1830.59 259.049 1825.99 212.386 1823.24 166.644C1820.48 122.13 1819.56 76.6955 1802.08 36.1724C1788.59 4.55212 1765.6 -21.5423 1737.09 -40.5759C1708.89 -59.6094 1675.78 -71.2752 1642.36 -75.2661C1580.74 -82.6339 1518.51 -67.5912 1461.18 -46.4087C1456.59 -44.5668 1451.68 -42.7248 1447.08 -41.1898C1403.55 -24.3052 1355.42 -3.42968 1309.13 -15.7094C1266.82 -27.0681 1242.6 -63.9073 1226.05 -97.3696C1200.91 -148.023 1186.2 -211.264 1217.47 -268.979C1227.89 -288.012 1242.3 -304.897 1259.16 -319.326C1276.63 -334.061 1296.56 -346.341 1316.49 -357.393C1332.12 -365.989 1348.06 -374.277 1363.39 -383.18C1387.3 -396.688 1410.6 -412.038 1429.3 -431.378C1438.5 -440.895 1446.47 -451.333 1452.91 -462.691C1472.53 -497.075 1478.35 -540.975 1461.18 -578.121" stroke="#C2C2C2" stroke-width="0.75" stroke-miterlimit="10"/>
        <path d="M2251.2 429.43C2186.21 484.075 2089.95 496.969 2009.93 466.883C1930.23 436.798 1867.69 367.725 1839.48 286.985C1824.77 244.927 1819.86 199.492 1816.49 154.978C1813.43 111.999 1811.59 68.0994 1794.72 28.8043C1781.54 -1.89503 1759.78 -27.0685 1732.19 -46.1021C1704.9 -64.8286 1673.02 -76.4944 1640.83 -80.7923C1581.36 -88.7741 1520.96 -75.5734 1464.86 -56.2328C1460.26 -54.6979 1455.67 -53.1629 1451.07 -51.3209C1408.45 -35.9713 1361.86 -16.9377 1316.79 -28.2965C1275.71 -38.7342 1251.19 -72.8104 1233.41 -104.124C1205.51 -152.936 1186.81 -215.255 1215.93 -273.584C1225.44 -292.924 1239.54 -309.809 1256.4 -324.545C1273.57 -339.587 1292.88 -352.174 1312.81 -363.533C1328.14 -372.436 1343.77 -380.724 1359.1 -389.934C1382.7 -404.056 1405.39 -419.406 1423.48 -439.36C1432.37 -449.184 1440.03 -459.622 1445.86 -470.98C1464.56 -505.978 1468.85 -549.571 1451.07 -586.103" stroke="#C7C7C7" stroke-width="0.75" stroke-miterlimit="10"/>
        <path d="M2256.72 417.151C2189.27 472.716 2090.86 486.224 2009.01 455.832C1926.85 425.439 1862.48 354.524 1833.35 271.636C1818.94 230.806 1814.04 186.906 1810.36 143.927C1806.68 102.176 1804.53 59.8106 1787.98 21.7434C1775.1 -7.72791 1754.26 -32.5944 1727.89 -51.3209C1701.84 -69.7405 1671.18 -81.4062 1639.91 -86.3181C1582.58 -95.2209 1523.72 -83.8622 1469.15 -66.3636C1464.56 -64.8286 1460.26 -63.6007 1455.67 -62.0657C1414.28 -48.251 1368.91 -31.0594 1325.07 -41.4972C1284.91 -51.014 1260.38 -82.6343 1241.38 -111.492C1210.41 -158.155 1187.73 -219.553 1215.01 -278.496C1223.9 -298.143 1237.7 -315.335 1253.95 -330.378C1270.5 -345.727 1289.81 -358.621 1309.43 -370.287C1324.46 -379.19 1340.09 -388.092 1355.11 -397.302C1378.41 -411.731 1400.79 -427.387 1418.26 -447.649C1426.85 -457.473 1433.9 -468.218 1439.72 -479.883C1457.2 -515.188 1460.26 -558.781 1441.87 -594.699" stroke="#CDCDCD" stroke-width="0.75" stroke-miterlimit="10"/>
        <path d="M2262.23 404.871C2192.64 461.665 2092.09 475.172 2007.79 444.473C1923.48 413.774 1856.65 341.323 1827.22 256.286C1813.43 216.991 1808.21 174.626 1803.92 132.875C1799.94 92.6589 1796.87 51.5219 1780.93 14.9897C1768.36 -13.5606 1748.43 -37.8131 1722.99 -55.9257C1697.85 -74.0383 1668.42 -85.704 1638.38 -90.9229C1583.2 -100.44 1525.87 -90.9229 1472.83 -75.5732C1468.54 -74.3453 1464.25 -73.1173 1459.65 -71.5824C1419.18 -59.3026 1375.35 -43.953 1332.73 -53.7768C1293.8 -62.3726 1268.66 -91.2299 1248.73 -117.631C1214.71 -162.145 1188.34 -222.93 1213.48 -282.18C1221.76 -301.827 1234.94 -319.326 1250.88 -334.675C1267.13 -350.332 1286.14 -363.533 1305.45 -375.199C1320.47 -384.408 1335.8 -393.311 1350.51 -402.828C1373.51 -417.564 1395.27 -433.834 1412.44 -454.403C1420.72 -464.533 1427.46 -475.278 1432.98 -486.944C1449.23 -522.555 1451.07 -565.841 1432.06 -601.452" stroke="#D2D2D2" stroke-width="0.75" stroke-miterlimit="10"/>
        <path d="M2267.75 392.591C2196.02 450.306 2093.01 464.427 2006.56 433.114C1919.8 401.801 1851.13 327.816 1820.78 240.63C1807.6 202.562 1802.08 161.732 1797.48 121.516C1793.19 82.5281 1789.51 43.233 1773.88 7.62177C1761.62 -20.0076 1742.61 -43.3391 1718.39 -61.4517C1694.48 -79.2573 1665.97 -90.923 1637.15 -96.7559C1584.12 -106.887 1528.32 -99.2118 1476.51 -86.0111C1472.22 -84.7831 1467.93 -83.8622 1463.64 -82.6342C1424.09 -71.8894 1381.78 -58.3817 1340.7 -67.2845C1303 -75.2663 1277.55 -101.361 1256.4 -125.306C1219 -167.671 1188.96 -227.535 1212.25 -287.706C1219.92 -307.66 1232.79 -325.466 1248.43 -340.815C1264.37 -356.472 1283.07 -369.98 1302.08 -382.259C1316.79 -391.776 1331.81 -400.986 1346.53 -410.503C1369.21 -425.545 1390.67 -442.123 1406.92 -462.999C1414.89 -473.129 1421.33 -484.181 1426.54 -496.154C1441.87 -532.072 1442.48 -575.358 1422.86 -610.048" stroke="#D8D8D8" stroke-width="0.75" stroke-miterlimit="10"/>
        <path d="M2273.27 380.311C2199.39 438.947 2094.24 453.683 2005.33 422.063C1916.43 390.442 1845.31 314.922 1814.34 225.587C1801.47 188.748 1795.95 149.453 1790.74 110.772C1785.83 73.0114 1781.54 35.2512 1766.52 1.17501C1754.57 -25.5334 1736.78 -48.2509 1713.49 -66.0565C1690.49 -83.8621 1663.52 -95.5278 1635.62 -101.361C1584.42 -112.412 1530.77 -106.273 1480.19 -95.2209C1475.9 -94.2999 1471.91 -93.3789 1467.93 -92.4579C1429.61 -83.2481 1388.53 -71.8894 1348.67 -79.5642C1312.19 -86.625 1286.14 -109.957 1264.06 -131.446C1223.29 -171.355 1189.57 -230.605 1211.33 -291.389C1218.39 -311.651 1230.95 -329.457 1245.98 -345.113C1261.61 -361.077 1280 -374.892 1298.4 -387.478C1312.81 -397.302 1327.83 -406.512 1341.93 -416.336C1364 -431.685 1385.16 -448.57 1401.1 -470.059C1408.76 -480.497 1414.89 -491.856 1419.8 -503.522C1433.9 -539.747 1433.29 -582.726 1413.05 -617.109" stroke="#DEDEDE" stroke-width="0.75" stroke-miterlimit="10"/>
        <path d="M2278.79 368.032C2202.76 427.588 2095.16 442.938 2004.11 410.704C1913.06 378.469 1839.79 301.414 1807.91 209.93C1795.64 174.626 1789.51 136.559 1784.3 99.4127C1779.09 63.1875 1774.19 26.6553 1759.47 -6.19297C1748.13 -31.6734 1730.96 -53.7769 1708.89 -71.5825C1686.81 -89.0811 1661.06 -100.747 1634.39 -107.194C1585.34 -118.859 1533.23 -114.561 1484.18 -105.659C1480.19 -105.045 1476.21 -104.124 1472.22 -103.203C1434.82 -95.8349 1395.27 -86.0112 1356.65 -92.765C1321.39 -98.9049 1294.72 -119.166 1271.73 -138.814C1227.58 -176.267 1190.49 -235.21 1210.11 -296.608C1216.55 -316.87 1228.5 -334.983 1243.52 -350.946C1258.55 -367.217 1276.94 -381.338 1295.03 -393.925C1309.13 -403.749 1323.84 -413.266 1337.95 -423.397C1359.71 -439.053 1380.56 -456.552 1395.58 -478.041C1402.94 -488.479 1408.76 -500.145 1413.05 -512.118C1426.24 -548.65 1424.09 -591.629 1403.24 -625.398" stroke="#E3E3E3" stroke-width="0.75" stroke-miterlimit="10"/>
        <path d="M2284.31 355.752C2206.13 416.23 2096.38 431.886 2002.88 399.345C1909.38 366.804 1834.27 288.214 1801.47 194.581C1789.51 160.504 1783.38 123.972 1777.86 88.054C1772.35 53.0568 1766.83 18.0596 1752.42 -13.2537C1741.38 -37.8131 1725.14 -59.3026 1703.98 -76.4942C1683.14 -93.6858 1658.61 -105.352 1632.86 -112.105C1585.96 -124.385 1535.37 -122.236 1487.85 -114.868C1483.87 -114.254 1479.88 -113.64 1476.21 -113.026C1439.72 -107.194 1401.71 -99.2117 1364.31 -105.045C1329.97 -110.263 1303 -127.762 1279.08 -145.261C1231.57 -179.951 1190.79 -238.587 1208.58 -300.599C1214.4 -321.168 1226.05 -339.587 1240.46 -355.858C1255.17 -372.436 1272.95 -386.864 1291.04 -399.758C1305.14 -409.889 1319.55 -419.712 1333.35 -430.15C1354.81 -446.421 1375.04 -463.919 1389.75 -486.023C1396.81 -496.768 1402.32 -508.433 1406.31 -520.406C1418.26 -557.552 1414.89 -599.917 1393.43 -633.38" stroke="#E9E9E9" stroke-width="0.75" stroke-miterlimit="10"/>
        <path d="M2289.83 343.472C2209.51 405.178 2097.3 421.142 2001.66 388.293C1906.01 355.138 1828.45 275.013 1795.34 179.231C1784 146.383 1777.56 111.386 1771.43 77.0024C1765.29 43.5401 1759.16 10.0779 1745.37 -20.3144C1734.64 -43.9529 1719.31 -64.8284 1699.38 -81.7131C1679.46 -98.5977 1656.16 -110.263 1631.63 -117.631C1586.87 -130.832 1537.82 -130.218 1491.84 -124.999C1488.16 -124.692 1484.18 -124.078 1480.5 -123.771C1445.24 -119.473 1408.45 -113.333 1372.59 -118.245C1339.48 -122.85 1311.89 -136.972 1287.06 -152.321C1235.86 -184.249 1192.02 -242.884 1207.66 -305.511C1212.87 -326.387 1223.9 -344.806 1238.01 -361.384C1252.41 -378.268 1269.89 -392.697 1287.67 -406.205C1301.46 -416.643 1315.57 -426.466 1329.36 -437.211C1350.51 -453.789 1370.44 -471.594 1384.54 -494.005C1391.29 -504.75 1396.5 -516.722 1400.18 -529.002C1410.91 -566.455 1406.31 -608.82 1384.24 -641.668" stroke="#EEEEEE" stroke-width="0.75" stroke-miterlimit="10"/>
        <path d="M2295.34 331.193C2212.88 393.819 2098.53 410.397 2000.43 376.935C1902.33 343.472 1822.93 261.812 1788.9 163.882C1777.86 132.568 1771.43 98.799 1764.99 65.9507C1758.55 33.7164 1751.81 1.78914 1738.32 -27.0682C1727.89 -49.7857 1713.79 -69.7402 1694.79 -86.6249C1676.08 -103.202 1653.71 -114.868 1630.41 -122.543C1587.79 -136.358 1540.58 -137.586 1495.83 -134.516C1492.15 -134.209 1488.47 -133.902 1484.79 -133.595C1450.45 -130.832 1415.2 -126.534 1380.56 -130.525C1348.67 -134.209 1320.47 -145.261 1294.72 -158.768C1240.15 -187.626 1192.63 -246.261 1206.43 -309.502C1211.03 -330.377 1221.76 -349.104 1235.55 -365.989C1249.65 -382.873 1266.82 -397.916 1284.3 -411.424C1297.79 -421.861 1311.89 -432.299 1325.38 -443.044C1346.22 -459.928 1365.54 -478.348 1379.02 -501.066C1385.46 -512.117 1390.37 -524.09 1393.74 -536.37C1403.55 -574.13 1397.42 -616.495 1374.73 -648.729" stroke="#F4F4F4" stroke-width="0.75" stroke-miterlimit="10"/>
        <path d="M2300.86 318.913C2216.25 382.46 2099.45 399.652 1999.2 365.576C1898.96 331.499 1817.41 248.304 1782.46 148.225C1772.04 118.139 1765.29 86.212 1758.24 54.5917C1751.19 23.8924 1743.84 -6.80688 1730.96 -34.4363C1720.84 -55.9258 1707.66 -75.5733 1689.57 -92.151C1671.79 -108.422 1650.95 -120.087 1628.57 -128.376C1588.1 -143.112 1542.42 -145.875 1498.89 -144.954C1495.21 -144.954 1491.84 -144.647 1488.16 -144.647C1455.05 -143.419 1421.02 -140.963 1387.61 -144.033C1356.95 -146.796 1328.14 -154.471 1301.46 -166.443C1243.52 -191.924 1192.63 -250.866 1204.28 -314.721C1208.27 -335.903 1218.39 -354.937 1231.87 -371.822C1245.67 -389.013 1262.53 -404.363 1279.7 -418.178C1292.88 -428.922 1306.68 -439.36 1319.86 -450.412C1340.4 -467.603 1359.4 -486.33 1372.28 -509.355C1378.72 -520.713 1383.01 -532.686 1386.08 -545.273C1394.66 -583.34 1387.3 -625.398 1364 -657.325" stroke="#F9F9F9" stroke-width="0.75" stroke-miterlimit="10"/>
        <path d="M2306.38 306.633C2219.62 371.102 2100.37 388.6 1997.98 354.217C1895.58 319.834 1811.59 235.104 1776.02 132.875C1748.74 53.9779 1745.37 -39.041 1684.98 -97.0627C1638.07 -142.191 1567.87 -152.936 1502.88 -154.47C1437.58 -156.005 1370.44 -151.094 1309.13 -172.89C1247.82 -194.994 1193.25 -254.55 1203.36 -319.019C1210.11 -361.998 1242.91 -396.074 1276.33 -424.01C1309.74 -451.947 1346.53 -478.348 1366.76 -517.029C1390.98 -563.385 1386.08 -623.249 1354.5 -665" stroke="white" stroke-width="0.75" stroke-miterlimit="10"/>
        <path d="M-989.749 1065.53C-1024.85 1016.46 -1018.74 945.494 -983.465 896.498C-948.491 847.442 -889.477 819.353 -829.908 810.742C-770.34 802.132 -709.501 810.953 -650.452 824.11C-593.812 836.793 -535.472 853.56 -478.803 842.193C-391.213 824.713 -327.71 741.895 -310.221 654.415C-293.032 566.877 -314.326 476.156 -345.164 392.622C-367.001 333.348 -393.268 264.77 -360.782 210.852C-331.106 161.693 -263.487 148.728 -206.735 159.246C-112.571 176.799 -29.8241 247.719 1.2214 338.168C15.3443 379.368 19.5439 423.306 26.1475 466.155C33.0524 509.062 42.9107 552.862 67.4293 588.918C91.9479 624.974 133.171 652.438 176.626 649.411" stroke="#8A8A8A" stroke-width="0.75" stroke-miterlimit="10"/>
        <path d="M-978.763 1073.31C-1014.36 1021.96 -1008.07 948.526 -972.082 897.483C-936.093 846.44 -875.461 816.481 -813.305 807.442C-755 798.895 -695.667 807.421 -638.065 819.981C-582.572 832.127 -525.862 847.636 -470.215 836.694C-427.203 827.956 -389.849 803.424 -361.437 770.263C-333.085 737.403 -313.434 696.273 -304.863 654.218C-288.785 575.521 -304.326 493.741 -329.659 417.223C-331.851 410.857 -333.8 404.85 -335.991 398.484C-356.558 340.71 -381.254 273.69 -349.606 220.857C-320.711 172.483 -256.221 159.527 -201.525 167.767C-132.553 178.186 -67.8691 216.818 -26.2919 274.344C-12.4939 293.299 -1.27717 314.246 6.57281 336.407C14.9071 359.288 19.9337 383.081 24.2397 407.358C27.5001 425.806 30.04 444.738 33.3005 463.186C38.3448 491.669 44.8362 520.748 55.9526 546.987C61.5403 559.956 68.1499 572.501 76.5019 584.139C101.499 619.351 142.716 645.252 185.929 641.865" stroke="#909090" stroke-width="0.75" stroke-miterlimit="10"/>
        <path d="M-967.777 1081.09C-1003.86 1027.46 -997.765 951.8 -961.001 898.409C-924.238 845.019 -861.385 813.31 -797.304 804.023C-740.322 795.842 -682.436 803.771 -626.222 815.434C-572.117 826.682 -516.553 841.654 -462.471 830.716C-420.481 822.403 -384.149 798.295 -355.974 766.338C-328.159 734.621 -308.744 694.695 -299.748 653.66C-283.18 577.247 -297.267 497.626 -321.03 422.666C-322.979 416.66 -324.869 410.353 -327.12 404.288C-346.358 347.712 -369.541 282.551 -339.033 230.744C-311.278 183.395 -249.559 170.208 -196.617 176.229C-129.34 184.128 -64.6736 218.07 -21.7793 273.668C-7.56193 292.08 3.77303 312.426 12.2846 334.404C20.9792 357.044 26.366 380.595 30.7901 404.271C34.3518 422.778 37.3111 441.167 40.8728 459.674C46.2775 487.915 53.1883 516.453 64.9662 542.509C70.613 555.177 77.5828 567.48 86.053 578.516C111.588 612.585 153.041 637.282 195.77 633.176" stroke="#959595" stroke-width="0.75" stroke-miterlimit="10"/>
        <path d="M-957.091 1088.81C-993.967 1032.84 -987.7 954.713 -949.921 899.335C-912.141 843.958 -847.67 810.379 -781.06 800.964C-725.644 792.788 -668.963 800.481 -614.196 811.547C-561.237 822.258 -507.061 836.332 -454.243 825.459C-413.215 817.269 -377.722 794.246 -349.967 762.831C-322.631 731.958 -303.452 693.235 -294.332 653.162C-277.574 578.972 -290.15 501.211 -312.099 428.169C-313.747 422.222 -315.696 416.216 -317.645 410.209C-335.554 354.832 -357.226 291.529 -327.858 240.748C-301.242 194.426 -241.992 181.066 -191.106 184.809C-125.766 189.829 -60.5152 219.199 -17.0243 273.352C-2.6888 291.162 9.30768 311.326 17.8783 333.003C26.9332 355.401 32.6804 378.711 37.4648 402.145C41.0856 420.351 44.3461 438.799 48.2681 457.064C54.033 485.064 61.3041 513.36 73.5014 538.874C79.5085 551.3 86.5375 563.303 95.0667 574.038C121.08 607.263 162.769 630.757 205.073 625.63" stroke="#9B9B9B" stroke-width="0.75" stroke-miterlimit="10"/>
        <path d="M-946.105 1096.6C-983.47 1038.33 -977.333 957.686 -938.538 900.321C-900.044 842.896 -833.352 807.567 -764.758 797.604C-710.664 789.793 -655.431 796.889 -602.052 807.058C-550.481 816.872 -497.693 830.049 -446.198 819.54C-406.435 811.415 -371.42 789.235 -344.202 758.964C-317.403 729.235 -298.159 691.775 -288.915 652.663C-271.608 580.456 -283.032 504.795 -303.168 433.672C-304.816 427.725 -306.523 422.078 -308.23 416.432C-324.568 362.612 -344.969 300.809 -316.8 251.355C-291.325 206.058 -234.786 192.166 -186.014 193.932C-122.37 196.431 -57.1365 221.112 -12.3285 273.336C2.42643 290.605 14.482 310.467 23.4719 331.602C32.645 353.398 38.9947 376.827 44.1394 400.018C48.1205 417.983 51.7413 436.189 55.6633 454.455C61.7885 482.213 69.7802 510.025 82.3969 534.997C88.7643 547.182 95.8523 558.883 104.742 569.376C131.292 601.458 172.917 623.689 215.037 617.901" stroke="#A0A0A0" stroke-width="0.75" stroke-miterlimit="10"/>
        <path d="M-935.118 1104.38C-972.974 1043.83 -966.725 961.018 -927.457 901.247C-887.888 841.534 -819.577 804.335 -748.455 794.244C-695.986 786.739 -641.898 793.298 -589.666 802.929C-539.24 812.206 -487.84 824.485 -437.61 814.041C-398.809 806.039 -364.875 784.584 -338.194 755.457C-311.874 726.572 -292.867 690.315 -283.558 652.465C-266.062 582.483 -275.973 508.681 -294.296 439.475C-295.702 433.888 -297.409 428.242 -299.116 422.595C-314.125 369.974 -332.713 310.089 -305.985 261.601C-281.348 217.389 -227.881 203.207 -180.864 202.754C-118.855 202.433 -53.6397 222.424 -7.87478 272.962C7.29948 289.687 19.4731 308.948 28.8234 329.842C38.3568 351.396 44.8246 374.223 50.2706 397.473C54.5529 415.497 58.2327 433.403 62.5742 451.126C69.3609 478.702 77.4708 505.912 90.4477 530.642C96.8742 542.526 104.323 553.986 113.271 564.178C140.359 595.115 182.22 616.144 223.555 609.576" stroke="#A6A6A6" stroke-width="0.75" stroke-miterlimit="10"/>
        <path d="M-924.132 1112.16C-962.478 1049.33 -956.359 963.991 -916.075 902.232C-875.792 840.473 -805.26 801.523 -732.153 790.885C-680.948 783.444 -628.668 789.648 -577.522 798.441C-528.543 807.121 -478.171 818.261 -429.565 808.123C-391.727 800.244 -358.573 779.574 -332.371 751.29C-306.529 723.248 -287.757 688.194 -278.082 651.666C-260.398 583.907 -268.856 512.265 -285.607 444.618C-287.013 439.031 -288.419 433.443 -289.884 428.157C-303.564 376.734 -320.64 318.708 -295.052 271.246C-271.496 227.759 -220.498 213.404 -175.595 210.974C-115.223 207.832 -49.7827 223.493 -3.0018 272.043C12.2906 288.168 25.1258 307.246 34.5351 327.839C44.4288 349.151 51.2569 371.736 57.0632 394.746C61.4046 412.469 65.3857 430.433 70.0874 447.915C77.2345 475.249 85.7047 502.218 99.4613 526.163C106.248 537.806 114.057 549.024 123.064 558.915C150.932 589.068 192.486 608.474 233.638 601.246" stroke="#ABABAB" stroke-width="0.75" stroke-miterlimit="10"/>
        <path d="M-913.146 1119.94C-951.982 1054.83 -946.052 967.265 -904.693 903.217C-863.334 839.17 -791.243 798.652 -715.549 787.584C-665.667 780.508 -614.834 786.115 -565.135 794.312C-517.244 802.154 -468.319 812.697 -420.977 802.623C-384.101 794.868 -351.786 775.283 -326.062 747.842C-300.758 720.944 -282.223 687.093 -272.424 651.527C-254.249 586.052 -261.195 516.268 -276.375 450.179C-277.539 444.952 -278.945 439.365 -280.108 434.138C-292.577 384.515 -308.443 328.288 -283.694 281.912C-261.278 239.45 -212.689 224.622 -170.202 220.156C-111.165 214.253 -46.044 225.165 1.69385 272.028C17.4056 287.61 30.359 306.087 40.4298 326.497C50.6838 347.568 57.8723 369.911 64.0388 392.679C68.7405 410.16 73.082 427.883 77.7837 445.365C85.291 472.457 94.4818 498.942 108.298 522.587C115.084 534.23 123.312 544.905 132.438 554.195C160.843 583.204 202.633 601.407 243.242 593.76" stroke="#B1B1B1" stroke-width="0.75" stroke-miterlimit="10"/>
        <path d="M-902.159 1127.72C-941.787 1060.27 -935.685 970.238 -893.311 904.203C-851.237 838.109 -776.866 795.539 -699.305 784.525C-650.989 777.454 -601.361 782.825 -553.109 790.425C-506.364 797.729 -459.069 807.016 -413.05 797.307C-377.137 789.675 -345.601 770.873 -320.415 744.577C-295.288 718.582 -277.291 685.875 -267.125 651.631C-248.761 588.379 -254.195 520.455 -267.562 456.284C-268.726 451.057 -269.889 445.829 -271.053 440.602C-282.134 391.876 -296.127 337.267 -272.819 291.857C-251.543 250.422 -205.666 235.061 -164.992 228.677C-107.532 219.652 -42.1866 226.235 6.20682 271.352C22.338 286.392 35.3504 304.567 45.7816 324.736C56.455 345.264 63.9446 367.667 70.2293 389.833C75.2913 407.073 79.6327 424.796 84.6948 442.035C92.6215 468.585 102.114 495.13 116.65 518.291C123.797 529.692 132.084 540.067 141.57 549.115C170.454 577.281 212.238 593.92 252.663 585.612" stroke="#B7B7B7" stroke-width="0.75" stroke-miterlimit="10"/>
        <path d="M-891.172 1135.5C-931.291 1065.76 -925.077 973.57 -882.23 905.128C-839.14 837.047 -763.151 792.608 -683.003 781.165C-636.009 774.459 -587.829 779.234 -540.965 785.936C-495.667 792.644 -449.459 801.092 -404.763 791.748C-370.173 784.481 -339.358 766.163 -314.709 741.011C-290.12 716.159 -272.358 684.656 -262.069 651.373C-243.457 590.045 -247.438 524.281 -258.992 462.028C-259.854 456.86 -261.077 451.934 -261.939 446.766C-271.75 399.539 -284.172 346.488 -262.063 302.404C-241.927 261.995 -198.46 246.161 -159.96 238.1C-103.835 226.314 -38.8671 228.448 10.7845 271.939C27.0337 286.376 40.7668 304.069 51.257 323.937C61.9895 344.164 69.8395 366.325 76.7857 388.308C81.8477 405.548 86.9098 422.788 91.9718 440.027C100.259 466.336 110.17 492.338 125.126 514.957C132.332 526.057 140.979 536.19 150.525 544.937C179.946 571.959 221.966 587.395 261.907 578.367" stroke="#BCBCBC" stroke-width="0.75" stroke-miterlimit="10"/>
        <path d="M-880.186 1143.28C-920.795 1071.26 -914.711 976.543 -870.848 906.114C-826.985 835.685 -748.774 789.496 -666.701 777.806C-620.971 771.164 -574.297 775.643 -528.88 781.749C-484.669 787.618 -439.908 795.469 -396.777 786.131C-363.15 778.987 -333.115 761.453 -308.945 737.144C-284.834 713.136 -267.007 682.895 -256.653 650.875C-237.551 591.83 -240.321 527.865 -250.061 467.531C-250.982 462.663 -251.845 457.495 -252.465 452.687C-260.646 406.718 -271.856 355.467 -250.888 312.409C-231.591 273.084 -190.775 256.418 -154.751 246.621C-100.202 231.713 -35.3114 229.459 15.297 271.263C31.9657 285.158 45.7578 302.549 56.6675 321.875C67.7602 341.86 75.9705 363.78 82.9758 385.462C88.3981 402.46 93.4601 419.7 99.2428 436.456C107.89 462.523 118.463 488.343 133.838 510.419C141.405 521.277 150.111 531.11 160.017 539.616C189.975 565.493 231.93 579.667 271.688 569.978" stroke="#C2C2C2" stroke-width="0.75" stroke-miterlimit="10"/>
        <path d="M-869.2 1151.06C-910.298 1076.76 -904.403 979.817 -859.465 907.099C-814.586 834.683 -734.757 786.624 -650.097 774.505C-605.992 768.17 -560.463 772.111 -516.133 777.378C-473.369 782.651 -429.937 789.305 -388.13 780.331C-355.466 773.31 -326.57 756.803 -302.577 733.396C-278.944 710.231 -261.354 681.194 -250.935 650.436C-231.644 593.615 -232.961 531.81 -241.13 473.033C-241.75 468.225 -242.37 463.417 -243.292 458.55C-250.143 413.779 -259.842 364.387 -240.013 322.355C-221.856 284.056 -183.693 266.556 -149.541 255.142C-96.2682 237.172 -31.5133 230.83 20.1111 270.646C37.2582 283.698 51.1094 300.789 62.3203 320.173C73.7734 339.917 82.403 361.294 89.7095 383.036C95.4922 399.792 100.613 416.731 106.697 433.546C116.006 459.43 126.697 484.648 142.793 506.242C150.72 516.858 159.485 526.39 169.509 534.294C200.247 559.387 242.196 571.998 281.47 561.589" stroke="#C7C7C7" stroke-width="0.75" stroke-miterlimit="10"/>
        <path d="M-858.213 1158.84C-899.743 1081.95 -894.037 982.789 -848.444 908.326C-802.791 833.562 -720.8 784.053 -633.854 771.446C-591.013 765.174 -546.99 768.82 -504.108 773.491C-462.43 777.925 -420.445 783.982 -379.902 775.073C-348.502 768.117 -320.085 752.452 -296.629 730.19C-273.534 708.169 -256.18 680.335 -245.336 650.598C-225.554 596.06 -225.359 536.114 -232.016 479.196C-232.636 474.388 -233.014 469.94 -233.634 465.132C-239.216 421.86 -247.344 374.026 -228.655 333.02C-211.579 295.446 -175.826 277.473 -143.847 264.383C-92.0924 242.991 -27.4733 232.56 25.108 270.69C42.6745 283.199 56.8859 300.048 68.5162 318.89C80.3886 338.092 89.3195 359.528 96.9864 381.028C102.828 397.483 108.552 414.54 114.695 431.055C124.364 456.697 135.415 481.674 151.93 502.724C159.916 513.04 169.101 522.029 179.426 529.993C210.702 553.941 252.887 565.349 291.677 554.22" stroke="#CDCDCD" stroke-width="0.75" stroke-miterlimit="10"/>
        <path d="M-847.227 1166.62C-889.548 1087.39 -883.429 986.122 -837.061 909.311C-790.694 832.501 -706.725 780.882 -617.61 768.387C-576.394 762.422 -533.818 765.47 -492.022 769.303C-451.792 773.141 -410.835 778.059 -371.916 769.455C-341.479 762.623 -313.841 747.742 -291.166 726.264C-268.549 705.087 -251.431 678.456 -240.522 649.981C-220.551 597.667 -218.844 539.58 -223.688 484.581C-224.066 480.133 -224.444 475.685 -225.064 470.877C-229.317 428.803 -235.932 382.828 -218.082 342.907C-202.146 306.359 -168.986 287.252 -139.24 272.785C-89.0032 247.971 -24.2777 233.812 29.0183 269.896C46.7029 281.803 61.3337 298.11 73.3243 316.71C85.557 335.67 94.8482 356.864 102.574 378.064C108.717 394.578 114.5 411.335 121.003 427.608C131.033 453.008 142.805 477.501 159.68 498.31C168.026 508.384 177.27 517.073 187.654 524.735C219.467 547.54 261.588 557.685 300.194 545.896" stroke="#D2D2D2" stroke-width="0.75" stroke-miterlimit="10"/>
        <path d="M-836.241 1174.4C-879.052 1092.89 -873.063 989.094 -825.679 910.297C-778.237 831.198 -692.407 778.069 -601.007 765.087C-561.113 759.486 -519.985 761.938 -479.636 765.175C-440.551 768.475 -401.284 772.437 -363.328 763.956C-333.853 757.247 -307.297 743.091 -284.857 722.816C-262.778 702.783 -245.838 677.055 -234.562 649.902C-214.402 599.812 -211.183 543.584 -214.154 490.202C-214.532 485.754 -214.609 481.365 -214.987 476.917C-217.911 436.041 -223.014 391.925 -206.363 353.331C-191.266 317.868 -160.758 297.928 -133.185 281.785C-84.4078 253.247 -19.8773 235.301 34.6769 269.757C52.7808 281.122 67.772 297.187 79.8216 315.487C92.1134 334.146 101.765 355.098 110.152 376.115C116.656 392.388 122.799 408.903 129.302 425.176C139.692 450.335 151.824 474.586 169.178 494.552C177.583 504.325 187.187 512.772 197.932 520.192C230.223 542.154 272.58 551.096 310.401 538.527" stroke="#D8D8D8" stroke-width="0.75" stroke-miterlimit="10"/>
        <path d="M-825.254 1182.18C-868.556 1098.39 -862.756 992.368 -814.598 911.223C-766.441 830.078 -678.632 774.838 -585.005 761.668C-546.376 756.131 -506.754 758.288 -467.793 760.627C-429.796 763.089 -391.916 766.153 -355.584 757.979C-327.072 751.393 -301.355 738.322 -279.394 718.891C-257.492 699.76 -240.847 675.535 -229.748 649.285C-209.039 601.177 -204.727 547.351 -205.826 495.586C-205.903 491.197 -206.038 487.109 -206.174 483.021C-207.828 443.644 -211.059 401.146 -195.849 363.518C-181.892 329.081 -153.977 308.007 -128.637 290.488C-81.6199 258.169 -16.9831 236.494 38.4688 269.564C56.9922 280.387 72.0424 296.151 84.5114 313.908C97.1635 332.326 107.175 353.036 115.982 373.511C122.846 389.542 128.989 406.057 135.911 421.787C146.721 446.404 159.213 470.414 177.229 490.197C185.994 499.728 195.959 507.933 206.461 514.994C239.29 535.811 281.582 543.491 319.219 530.261" stroke="#DEDEDE" stroke-width="0.75" stroke-miterlimit="10"/>
        <path d="M-814.268 1189.96C-858.06 1103.89 -852.389 995.34 -803.216 912.208C-754.043 829.075 -664.314 772.026 -568.402 758.367C-531.396 753.137 -492.861 754.455 -455.407 756.498C-418.856 758.364 -382.064 760.59 -346.996 752.479C-319.807 746.258 -294.81 733.671 -273.085 715.443C-251.662 697.156 -235.253 674.134 -223.788 649.205C-202.89 603.322 -197.066 551.354 -196.351 501.508C-196.186 497.479 -196.322 493.391 -196.458 489.303C-196.481 451.183 -198.501 410.485 -184.432 373.883C-171.614 340.472 -146.593 318.204 -122.884 299.428C-77.627 263.327 -12.6416 238.284 43.8262 269.367C62.4677 279.588 77.9373 294.81 90.7075 312.625C103.779 330.501 114.092 351.271 122.958 371.444C129.881 387.175 136.384 403.448 143.608 419.237C154.777 443.612 167.931 467.439 186.124 486.32C194.949 495.551 205.274 503.514 216.195 510.032C249.503 530.006 292.09 536.181 329.243 522.232" stroke="#E3E3E3" stroke-width="0.75" stroke-miterlimit="10"/>
        <path d="M-803.281 1197.74C-847.564 1109.38 -841.781 998.673 -791.834 913.193C-741.887 827.713 -650.298 769.155 -552.099 755.008C-516.358 749.841 -479.329 750.864 -443.021 752.37C-407.616 753.698 -372.211 755.026 -338.708 746.921C-312.483 740.824 -288.265 729.02 -267.32 711.576C-246.434 694.433 -230.262 672.615 -218.673 648.648C-197.586 604.988 -189.949 554.939 -188.023 506.892C-187.858 502.863 -187.692 498.834 -187.586 495.106C-186.28 458.185 -186.788 419.345 -173.859 383.769C-162.122 351.083 -139.753 327.982 -117.975 307.89C-74.7799 267.947 -9.38699 239.235 48.0378 268.631C67.0986 278.31 82.9285 293.29 96.1181 310.564C109.55 328.197 120.282 348.424 129.45 368.657C136.673 384.447 143.537 400.478 151.121 416.026C162.952 440.218 176.225 463.444 195.079 482.142C204.264 491.131 214.647 498.794 225.628 505.011C259.775 523.9 301.996 528.754 338.965 514.144" stroke="#E9E9E9" stroke-width="0.75" stroke-miterlimit="10"/>
        <path d="M-792.295 1205.53C-837.369 1114.82 -831.415 1001.65 -780.753 914.119C-729.79 826.652 -636.222 765.983 -535.856 751.949C-501.438 747.148 -465.856 747.573 -430.936 748.182C-396.919 748.613 -362.902 749.044 -330.421 741.363C-305.159 735.388 -281.721 724.37 -261.313 708.07C-240.906 691.77 -224.969 671.155 -213.014 648.509C-191.437 607.133 -182.589 558.883 -178.85 512.755C-178.442 509.086 -178.277 505.057 -177.869 501.388C-175.294 465.966 -174.231 428.684 -162.5 394.435C-151.602 362.834 -132.429 338.481 -112.583 317.072C-71.3896 272.987 -5.40598 241.267 53.0347 268.675C72.515 277.812 88.463 292.19 102.013 309.222C115.805 326.613 126.597 346.54 136.425 366.59C144.009 382.138 150.932 397.869 158.817 413.476C171.009 437.427 184.641 460.411 203.915 478.566C213.159 487.254 223.903 494.675 235.244 500.651C269.928 518.396 312.385 522.046 348.871 506.716" stroke="#EEEEEE" stroke-width="0.75" stroke-miterlimit="10"/>
        <path d="M-781.309 1213.31C-826.873 1120.32 -821.108 1004.92 -769.371 915.104C-717.634 825.29 -622.206 763.111 -519.554 748.589C-486.701 743.793 -452.324 743.982 -418.851 743.994C-385.98 743.887 -353.351 743.421 -322.436 735.745C-298.136 729.894 -275.838 719.901 -255.607 704.503C-235.737 689.348 -219.978 669.635 -207.958 648.252C-186.192 609.1 -175.891 563.01 -170.279 518.499C-169.872 514.83 -169.464 511.161 -169.057 507.492C-165.152 473.268 -162.577 437.846 -151.986 404.622C-142.228 374.047 -125.95 348.501 -107.733 325.834C-68.9029 277.849 -2.21049 242.519 57.1871 268.241C76.7855 276.775 93.0938 290.912 107.004 307.702C120.855 324.793 132.308 344.538 142.196 364.287C149.839 379.534 157.364 395.383 165.309 410.689C177.861 434.398 192.214 456.898 211.907 474.512C221.511 482.958 232.314 490.078 243.714 495.753C278.877 512.655 321.629 514.801 357.631 498.751" stroke="#F4F4F4" stroke-width="0.75" stroke-miterlimit="10"/>
        <path d="M-770.322 1221.09C-816.376 1125.82 -810.741 1007.89 -757.989 916.09C-705.236 824.288 -607.888 760.299 -502.95 745.289C-471.42 740.858 -438.791 740.391 -406.405 739.565C-374.922 738.561 -343.381 737.256 -313.788 729.945C-290.752 724.159 -268.933 715.009 -249.181 700.455C-229.789 686.142 -214.325 667.934 -201.88 647.571C-179.624 610.702 -168.111 566.412 -160.628 523.519C-159.919 519.909 -159.57 516.541 -158.862 512.931C-153.687 480.206 -149.541 446.342 -140.09 414.144C-131.472 384.594 -118.389 357.796 -101.502 333.931C-65.335 281.986 2.30836 243.406 62.7219 267.141C82.7397 275.133 99.4674 288.727 113.437 305.216C127.648 322.066 139.461 341.568 149.71 361.076C157.713 376.081 165.297 391.629 173.602 406.694C186.514 430.161 201.228 452.42 221.34 469.491C231.245 477.997 242.167 484.515 253.927 489.948C289.627 505.706 332.315 506.59 368.133 489.879" stroke="#F9F9F9" stroke-width="0.75" stroke-miterlimit="10"/>
        <path d="M-759.336 1228.87C-805.88 1131.31 -800.074 1010.92 -746.607 917.075C-693.139 823.226 -593.812 757.127 -486.647 741.929C-403.971 730.357 -312.046 744.971 -243.475 696.889C-190.155 659.558 -166.086 592.741 -152.057 529.263C-137.97 465.484 -129.854 398.658 -96.6524 342.694C-63.1497 286.789 5.80496 244.718 67.1163 267.066C107.991 281.965 135.108 320.719 156.083 358.891C177.057 397.062 195.876 438.248 229.934 465.555C270.755 498.251 330.442 504.972 377.495 482.032" stroke="white" stroke-width="0.75" stroke-miterlimit="10"/>
    </g>
</svg>
